<svg id="Layer_1" data-name="Layer 1" xmlns="http://www.w3.org/2000/svg" viewBox="0 0 800 610.7"><path d="M533.08,511.22a76.91,76.91,0,0,1-72-76.71c0-1.36,0-2.72.11-4.08v.19c-.08-1.28-.13-2.77-.13-4.29A76.45,76.45,0,0,1,532.87,350h.21a76.05,76.05,0,0,1,72,75.91c0,1.65-.05,3.28-.16,4.9v-.21c.08,1.33.13,2.91.13,4.48a76.21,76.21,0,0,1-71.8,76.09h-.21Zm-265.71,0a76.9,76.9,0,0,1-72-76.71c0-1.36,0-2.72.1-4.08v.19c-.08-1.28-.13-2.77-.13-4.29A76.46,76.46,0,0,1,267.16,350h.21a76.05,76.05,0,0,1,72,75.91c0,1.65-.05,3.28-.16,4.9v-.21c.08,1.28.14,2.77.14,4.29a76.45,76.45,0,0,1-71.78,76.31ZM677.09,146c-47-22.18-101.61-39.72-158.78-49.88l-4-.59a2.06,2.06,0,0,0-.45,0,2.45,2.45,0,0,0-2.16,1.25h0a420.29,420.29,0,0,0-19.12,38.66l-1.15,3a589.65,589.65,0,0,0-91.39-6.91,613.86,613.86,0,0,0-94.84,7.34l3.44-.46A407.65,407.65,0,0,0,287,94.65l1.1,2a2.56,2.56,0,0,0-2.22-1.25,2,2,0,0,0-.42,0h0c-61.13,10.74-115.76,28.26-166.8,52.18l4-1.71a2.28,2.28,0,0,0-1.07.91h0C45.54,254.6,0,388.66,0,533.35a681.91,681.91,0,0,0,3.76,71.56L3.52,602a2.78,2.78,0,0,0,1,1.87h0a656.58,656.58,0,0,0,195,99.66l4.69,1.28a2.23,2.23,0,0,0,.75.11,2.52,2.52,0,0,0,2.05-1h0a464.69,464.69,0,0,0,39.6-63.77l1.25-2.67a2.6,2.6,0,0,0,.27-1.15,2.55,2.55,0,0,0-1.66-2.37h0A432.57,432.57,0,0,1,182,603.07l2.06,1.12a2.55,2.55,0,0,1-.27-4.24h0c4.19-3.14,8.4-6.4,12.4-9.7a2.47,2.47,0,0,1,1.57-.56,2.49,2.49,0,0,1,1,.21h0c58.87,28.29,128,44.82,200.92,44.82a471.06,471.06,0,0,0,203.78-46l-2.85,1.22a2.34,2.34,0,0,1,1.07-.24,2.51,2.51,0,0,1,1.57.56h0c4,3.31,8.18,6.61,12.42,9.73a2.61,2.61,0,0,1,1,2.06,2.58,2.58,0,0,1-1.23,2.18h0a392.81,392.81,0,0,1-59.59,28.74l-2.8,1a2.59,2.59,0,0,0-1.65,2.38,2.44,2.44,0,0,0,.29,1.17v0a530.25,530.25,0,0,0,41.89,67.94l-1.07-1.52a2.55,2.55,0,0,0,2.05,1.07,3.86,3.86,0,0,0,.78-.11h0C671.73,681,738.2,646.61,797.07,602.62l-1.74,1.25a2.57,2.57,0,0,0,1-1.84h0A647.55,647.55,0,0,0,800,532.31,667.54,667.54,0,0,0,676.74,144.8l1.39,2.08a2.16,2.16,0,0,0-1-1h0Z" transform="translate(0 -94.65)" fill="#5662f6"/></svg>