<svg id="Layer_1" data-name="Layer 1" xmlns="http://www.w3.org/2000/svg" viewBox="0 0 799.95 800"><path d="M735.93.07H68.49A65.51,65.51,0,0,0,0,62.57V731.51A70.5,70.5,0,0,0,68.49,800H735.93a67,67,0,0,0,64-68.49V62.57a61.5,61.5,0,0,0-64-62.5ZM250,667H133.49V310.54H250Zm-55.5-410.46a59,59,0,0,1-61-61.5,59,59,0,0,1,62-61.49,59,59,0,0,1,61,61.49,59,59,0,0,1-62,61.5ZM666.94,667H550V472c0-46.5-16.5-78.49-58-78.49a62.48,62.48,0,0,0-58.49,42,71.57,71.57,0,0,0-4,28.5V667h-115V310.54h115v50a116,116,0,0,1,105-60.5c75.49,0,132.49,50,132.49,156.49Z" transform="translate(0 0)" fill="#126bc4"/></svg>